<svg id="Group_149" data-name="Group 149" xmlns="http://www.w3.org/2000/svg" width="8.762" height="9.647" viewBox="0 0 8.762 9.647">
  <path id="Icon_ionic-ios-arrow-back" data-name="Icon ionic-ios-arrow-back" d="M15.331,11.016,11.465,7.369a.66.66,0,0,1,0-.974.764.764,0,0,1,1.034,0l4.38,4.133a.661.661,0,0,1,.021.951L12.5,15.64a.765.765,0,0,1-1.034,0,.66.66,0,0,1,0-.974Z" transform="translate(-8.33 -6.194)" fill="#fff"/>
  <path id="Icon_ionic-ios-arrow-back-2" data-name="Icon ionic-ios-arrow-back" d="M15.331,11.016,11.465,7.369a.66.66,0,0,1,0-.974.764.764,0,0,1,1.034,0l4.38,4.133a.661.661,0,0,1,.021.951L12.5,15.64a.765.765,0,0,1-1.034,0,.66.66,0,0,1,0-.974Z" transform="translate(-11.251 -6.194)" fill="#fff"/>
</svg>
